<svg width="400" height="400" xmlns="http://www.w3.org/2000/svg">
  <path
    fill="#22283a"
    transform="translate(112,145) scale(2.6)"
    d="m0 25h2v-11h.5v-4h.15v-1h.5v-.9h.45v-.8h.4v-.7h.35v-.6h.3v-.5h.25v-.4h.2v-.3h.15v-.2h.1v-.2h.1v-.5h.1l.5-.8v-2h.05v2l.5.8h.1v.5h.1v.2h.1v.2h.15v.3h.2v.4h.25v.5h.3v.6h.35v.7h.4v.8h.45v.9h.5v1h.15v4h.5v11h2v-18l8.1 2.7 5.4-2.7v18h2v-12h.8v-1.7h.7v-1.7h.7v-2h11v2h.7v1.7h.7v1.7h.8v12.1h2v-5.5h.5v-2.75h.25v-1.375l.375-.875.375.875h.125v-1.375h-.375v-.375h.375v-1.375h-.375v-.375h.375v-.75h.125v-.875h.375v-2.75h.25v-1h.125l.5-2.75v-2.75h.125v2.75l.5 2.75h.125v1h.25v2.75h.375v.875h.125v.75h.375v.375h-.375v1.375h.375v.375h-.375v1.375h.125l.375-.875.375.875v1.375h.25v2.75h.5v5.5h2v-14.25h-.3l-1.2-.75h15l-1.2.75h-.3v14.25h2v40h-67.175z"
  />
  <path
    fill="#f22e3d"
    transform="translate(100,180) scale(1.4)"
    d="M0 40V83.75H4v-27.5c2-9.7125 16-9.7125 18-2.25v29.75h8v-30c3-13.05 24-13.05 27-3.375V83.75h12V50c4-17.9125 32-17.9125 36-4.5V83.75h16V45.0475c5-24.3 40-24.3 45-5.625V83.75h20.406V0L0 40"
  />
  <path
    fill="#f2b22e"
    transform="scale(10)"
    d="m20 0l17.32 10-8.66 5-8.66-5-8.66 5v10l8.66 5 8.66-5 8.66 5-17.32 10-17.32-10v-20l17.32-10"
  />
</svg>